<svg width="31" height="32" viewBox="0 0 31 32" fill="none" xmlns="http://www.w3.org/2000/svg">
<path d="M15.5 31.0714C6.93959 31.0714 0 24.1319 0 15.5714C0 7.01103 6.93959 0.0714417 15.5 0.0714417C24.0604 0.0714417 31 7.01103 31 15.5714C30.9906 24.128 24.0565 31.062 15.5 31.0714ZM15.4752 27.9714H15.5C22.3459 27.9646 27.891 22.4112 27.8876 15.5652C27.8842 8.71934 22.3335 3.17145 15.4876 3.17145C8.64169 3.17145 3.09102 8.71934 3.0876 15.5652C3.08418 22.4112 8.62929 27.9646 15.4752 27.9714ZM12.4 23.3214L6.2 17.1214L8.3855 14.9359L12.4 18.9349L22.6145 8.72044L24.8 10.9214L12.4 23.3214Z" fill="#2E3A59"/>
</svg>
