<svg width="31" height="32" viewBox="0 0 31 32" fill="none" xmlns="http://www.w3.org/2000/svg">
<path d="M15.5014 31.0714C9.2327 31.075 3.57963 27.2993 1.18021 21.5062C-1.21921 15.7132 0.107985 9.04464 4.54246 4.6125C8.4577 0.696072 14.1643 -0.833469 19.5126 0.600045C24.861 2.03356 29.0385 6.21234 30.4716 11.5623C31.9046 16.9122 30.3756 22.6206 26.4603 26.537C23.5594 29.4519 19.6132 31.0847 15.5014 31.0714ZM3.10791 15.8413C3.18121 22.6617 8.74866 28.1417 15.5673 28.1052C22.3859 28.0684 27.8941 22.5288 27.8941 15.708C27.8941 8.88723 22.3859 3.34764 15.5673 3.31079C8.74866 3.27431 3.18121 8.75435 3.10791 15.5747V15.8413ZM11.4874 21.7734L9.30465 19.5884L13.317 15.5747L9.30465 11.5611L11.489 9.37614L15.5014 13.3897L19.5138 9.37614L21.6981 11.5611L17.6857 15.5747L21.6981 19.5884L19.5153 21.7734L15.5014 17.7598L11.489 21.7734H11.4874Z" fill="#2E3A59"/>
</svg>
