<svg width="56" height="56" viewBox="0 0 56 56" fill="none" xmlns="http://www.w3.org/2000/svg">
<path d="M0 27.9962C0.00319974 41.5245 9.84061 53.0433 23.2018 55.1635V35.9437H16.225V27.9962H23.21V21.9462C22.8977 19.0795 23.8769 16.2224 25.882 14.1498C27.8871 12.0772 30.7102 11.004 33.5858 11.2212C35.6497 11.2546 37.7085 11.4384 39.7458 11.7712V18.5335H36.2697C35.0731 18.3767 33.87 18.772 32.9994 19.6078C32.1288 20.4437 31.6849 21.6297 31.7927 22.8317V27.9962H39.413L38.1947 35.9465H31.7927V55.1635C46.2426 52.8799 56.3753 39.6831 54.8502 25.1337C53.325 10.5842 40.676 -0.224473 26.0668 0.537963C11.4575 1.3004 0.00232231 13.3671 0 27.9962Z" fill="#2E3A59"/>
</svg>
