<svg width="63" height="61" viewBox="0 0 63 61" fill="none" xmlns="http://www.w3.org/2000/svg">
<path d="M31.0004 0.500001C15.798 0.498063 2.83859 11.4418 0.404571 26.3372C-2.02945 41.2325 6.7806 55.6812 21.2042 60.449C22.7577 60.7266 23.3138 59.7798 23.3138 58.9657C23.3138 58.2348 23.289 56.298 23.2797 53.7229C14.6579 55.5733 12.8373 49.5966 12.8373 49.5966C12.2697 47.7368 11.0495 46.1405 9.3979 45.0971C6.60166 43.1881 9.61228 43.2313 9.61228 43.2313C11.6028 43.5022 13.3547 44.6729 14.3566 46.4016C15.2045 47.932 16.6332 49.0629 18.3251 49.543C20.0169 50.0231 21.8319 49.8125 23.3667 48.9582C23.5109 47.3977 24.2103 45.9393 25.3396 44.8442C18.4608 44.0701 11.2279 41.4303 11.2279 29.6403C11.1897 26.5909 12.3305 23.6429 14.4156 21.4031C13.4722 18.7487 13.5833 15.8373 14.7263 13.2614C14.7263 13.2614 17.3268 12.4318 23.2455 16.4101C28.3217 15.0285 33.679 15.0285 38.7553 16.4101C44.6771 12.4287 47.2745 13.2614 47.2745 13.2614C48.4228 15.8361 48.534 18.7495 47.5852 21.4031C49.6779 23.6427 50.8178 26.5984 50.7667 29.6526C50.7667 41.4735 43.5275 44.0701 36.6239 44.8319C38.1132 46.3432 38.8769 48.4165 38.7211 50.5249C38.7211 54.6389 38.6838 57.9572 38.6838 58.9657C38.6838 59.7891 39.2369 60.7451 40.8183 60.4429C55.2359 55.6669 64.0365 41.2174 61.5975 26.326C59.1585 11.4346 46.1997 0.496549 31.0004 0.500001Z" fill="#2E3A59"/>
</svg>
