<svg width="61" height="61" viewBox="0 0 61 61" fill="none" xmlns="http://www.w3.org/2000/svg">
<path d="M33.3352 60.5H20.0019V20.5H33.3352V27.1667C36.1773 23.5508 40.4873 21.3952 45.0852 21.29C53.3538 21.3359 60.0258 28.0646 60.0019 36.3333V60.5H46.6685V38C46.1353 34.2754 42.9411 31.5119 39.1785 31.52C37.5328 31.572 35.9794 32.2926 34.8767 33.5154C33.774 34.7382 33.2174 36.3577 33.3352 38V60.5ZM13.3353 60.5H0.00195312V20.5H13.3353V60.5ZM6.66861 13.8333C2.98672 13.8333 0.00195312 10.8486 0.00195312 7.16667C0.00195312 3.48477 2.98672 0.5 6.66861 0.5C10.3505 0.5 13.3353 3.48477 13.3353 7.16667C13.3353 8.93478 12.6329 10.6305 11.3826 11.8807C10.1324 13.131 8.43671 13.8333 6.66861 13.8333Z" fill="#2E3A59"/>
</svg>
